Coordinates
version=1
nRows=16
nColumns=42
inDegrees=yes

Units are S.I. units (second, meters, Newtons, ...)
If the header above contains a line with 'inDegrees', this indicates whether rotational values are in degrees (yes) or radians (no).

endheader
time	pelvis_tilt	pelvis_list	pelvis_rotation	pelvis_tx	pelvis_ty	pelvis_tz	hip_flexion_r	hip_adduction_r	hip_rotation_r	knee_angle_r	knee_adduction_r	knee_angle_r_beta	ankle_angle_r	subtalar_angle_r	mtp_angle_r	hip_flexion_l	hip_adduction_l	hip_rotation_l	knee_angle_l	knee_adduction_l	knee_angle_l_beta	ankle_angle_l	subtalar_angle_l	mtp_angle_l	lumbar_extension	lumbar_bending	lumbar_rotation	arm_flex_r	arm_add_r	arm_rot_r	elbow_flex_r	pro_sup_r	wrist_flex_r	wrist_dev_r	arm_flex_l	arm_add_l	arm_rot_l	elbow_flex_l	pro_sup_l	wrist_flex_l	wrist_dev_l
      1.94000000	     -6.11407129	      0.62441793	    -11.05884053	      0.43181332	      0.89312834	     -0.08359917	     -8.40204571	     -0.25860929	     -2.26934792	      9.14938097	      3.58808158	      0.15968682	     18.90788992	      9.75005633	     -7.51095833	     29.20569993	     -6.52585781	    -12.74184809	      3.49040471	      4.67289119	      0.06091905	     -9.14266519	    -13.49082724	     -7.51095833	     -2.34754033	     -0.92253040	      8.87790404	      6.80486000	    -20.74702292	      5.06757582	     46.81572051	     90.00000001	      0.00000000	      0.00000000	    -20.85719787	     -6.41672020	    -22.06196806	     17.95556853	     90.00000001	      0.00000000	      0.00000000
      1.95000000	     -6.29079917	      0.78110549	    -11.61032993	      0.44283485	      0.89165557	     -0.08345475	     -8.71592742	     -0.66714908	     -0.64421829	      9.48005706	      3.74722249	      0.16545821	     18.63308987	      7.92212707	     -7.51034367	     29.45026899	     -6.53181382	    -12.36585460	      4.02855430	      4.59344661	      0.07031154	    -10.72554006	    -16.05851728	     -7.51034367	     -2.19723715	     -1.22591432	      9.46284786	      6.58165515	    -20.66402590	      4.63476616	     46.90059869	     90.00000001	      0.00000000	      0.00000000	    -20.27374491	     -6.56153126	    -22.37047616	     17.22035247	     90.00000001	      0.00000000	      0.00000000
      1.96000000	     -6.29016395	      0.94935234	    -11.83553459	      0.45458889	      0.89052692	     -0.08364191	     -9.19257926	     -1.13088604	     -0.17852292	      9.96037496	      3.86062772	      0.17384134	     18.37366085	      7.64834392	     -7.51019361	     29.64008555	     -6.38544774	    -12.11713211	      5.07334370	      4.51879358	      0.08854655	    -11.43490891	    -16.75600599	     -7.51019361	     -2.17265162	     -1.60432608	      9.61383688	      6.37379632	    -20.56073910	      4.53179826	     46.80838320	     90.00000001	      0.00000000	      0.00000000	    -20.00205274	     -6.71737873	    -22.27326816	     16.97120519	     90.00000001	      0.00000000	      0.00000000
      1.97000000	     -6.47987539	      1.13765121	    -12.08016530	      0.46625262	      0.88957095	     -0.08372876	     -9.43462985	     -1.53025351	      0.92891259	     10.45218130	      3.97977191	      0.18242498	     17.73871111	      6.20741017	     -7.50985579	     29.88032594	     -6.26981287	    -10.90945333	      5.99138875	      4.51310136	      0.10456946	    -12.81519539	    -18.14438024	     -7.50985579	     -1.93303873	     -1.98238809	      9.86868810	      5.99707828	    -20.32502864	      4.05868474	     46.65417232	     90.00000001	      0.00000000	      0.00000000	    -19.54924476	     -6.92348943	    -22.33364439	     16.62843338	     90.00000001	      0.00000000	      0.00000000
      1.98000000	     -6.52454149	      1.36383084	    -12.23034864	      0.47828962	      0.88914906	     -0.08393902	     -9.87175543	     -2.01157555	      2.21100691	     10.86568291	      4.17660569	      0.18964194	     16.71528136	      4.24177042	     -7.50939626	     30.11494572	     -6.14364625	    -10.17286483	      7.39262390	      4.62411906	      0.12902563	    -13.53206811	    -18.60793168	     -7.50939626	     -1.82527298	     -2.44667768	     10.02970229	      5.56353144	    -20.07326941	      3.65984900	     46.36640022	     90.00000001	      0.00000000	      0.00000000	    -19.03028870	     -7.14760194	    -22.41748002	     16.32564812	     90.00000001	      0.00000000	      0.00000000
      1.99000000	     -6.50518632	      1.59285732	    -12.37858148	      0.49046320	      0.88917191	     -0.08430003	    -10.31731274	     -2.55765481	      3.57442628	     11.35044371	      4.47430070	      0.19810261	     15.39379466	      2.10142004	     -7.50879675	     30.31576207	     -6.02087229	     -9.34170789	      8.98702928	      4.78441624	      0.15685325	    -14.12549706	    -18.87656529	     -7.50879675	     -1.79037727	     -2.90778471	     10.13261723	      5.13909376	    -19.78044452	      3.29392515	     46.05725338	     90.00000001	      0.00000000	      0.00000000	    -18.49247986	     -7.32206237	    -22.46639434	     16.06762513	     90.00000001	      0.00000000	      0.00000000
      2.00000000	     -6.44956923	      1.87593606	    -12.32383634	      0.50305430	      0.88953536	     -0.08484629	    -10.61330575	     -3.12265985	      4.07601100	     12.23384998	      4.67800618	      0.21352096	     14.14814394	      1.23560123	     -7.50860016	     30.45495260	     -5.77340065	     -8.43446528	     10.58594325	      5.05721676	      0.18475956	    -14.51936710	    -19.06066339	     -7.50860016	     -1.74866190	     -3.44727596	     10.05783783	      4.59296850	    -19.43753716	      2.90320484	     45.64516363	     90.00000001	      0.00000000	      0.00000000	    -17.95238413	     -7.57974234	    -22.29793952	     15.88820987	     90.00000001	      0.00000000	      0.00000000
      2.01000000	     -6.41188462	      1.99559757	    -12.31234362	      0.51562837	      0.89040641	     -0.08531793	    -11.04933100	     -3.51056952	      6.05224273	     12.75415187	      5.14918939	      0.22260194	     11.84261892	     -2.47004395	     -7.50802346	     30.49216276	     -5.73382043	     -7.37925727	     12.07326970	      5.45027647	      0.21071831	    -14.63679572	    -19.20903576	     -7.50802346	     -1.73797686	     -3.79039986	     10.08926964	      3.97470170	    -19.06457874	      2.33574212	     45.12595923	     90.00000001	      0.00000000	      0.00000000	    -17.28004971	     -7.78052736	    -22.20859744	     15.74573583	     90.00000001	      0.00000000	      0.00000000
      2.02000000	     -6.27563977	      2.18395454	    -12.08864009	      0.52866791	      0.89156550	     -0.08608995	    -11.23152960	     -3.95156323	      6.30484677	     14.00650874	      5.40694201	      0.24445969	      9.96146123	     -3.38468716	     -7.50786521	     30.36424591	     -5.46996773	     -6.43146244	     13.44772916	      5.83729376	      0.23470715	    -14.48733994	    -19.28748674	     -7.50786521	     -1.78152972	     -4.21794860	      9.88479781	      3.30446399	    -18.69316107	      1.98097250	     44.52872980	     90.00000001	      0.00000000	      0.00000000	    -16.63282682	     -8.01545665	    -21.99328310	     15.68053852	     90.00000001	      0.00000000	      0.00000000
      2.03000000	     -6.07515854	      2.27173481	    -11.84978995	      0.54170388	      0.89313870	     -0.08703378	    -11.38244273	     -4.36193717	      6.86974750	     15.36987535	      5.90844907	      0.26825493	      8.23056201	     -4.07197223	     -7.50777530	     29.99024155	     -5.23591694	     -5.42731800	     14.54902309	      6.25237334	      0.25392836	    -14.17703264	    -19.35288650	     -7.50777530	     -1.94068369	     -4.51107177	      9.64456634	      2.63007828	    -18.40070134	      1.71914414	     43.94303214	     90.00000001	      0.00000000	      0.00000000	    -15.98283529	     -8.18354726	    -21.81544751	     15.79493465	     90.00000001	      0.00000000	      0.00000000
      2.04000000	     -6.07365683	      2.02355910	    -11.45303932	      0.55464123	      0.89513830	     -0.08763275	    -11.66478480	     -4.13255633	      9.55097046	     16.02624063	      6.58860625	      0.27971067	      3.60845962	    -11.07282172	     -7.50724750	     29.65816910	     -5.33332595	     -4.38411439	     15.39687905	      6.71059281	      0.26872623	    -13.64796283	    -19.39031694	     -7.50724750	     -1.93504258	     -4.42073476	      9.38164076	      1.91694932	    -17.86456090	      0.94709576	     42.97653593	     90.00000001	      0.00000000	      0.00000000	    -15.18719801	     -8.41588230	    -21.31407107	     15.78233625	     90.00000001	      0.00000000	      0.00000000
      2.05000000	     -5.81574772	      1.98598450	    -11.04056920	      0.56763873	      0.89736632	     -0.08876306	    -11.54146146	     -4.29881743	      9.85433797	     17.87370787	      7.08863373	      0.31195505	      1.68916095	    -11.29001474	     -7.50717231	     28.96393385	     -5.03542399	     -3.66273971	     16.07050746	      6.98549908	      0.28048327	    -13.02933886	    -19.40800668	     -7.50717231	     -2.19860703	     -4.55277420	      9.00362282	      1.22031955	    -17.57550548	      0.83920877	     42.22162831	     90.00000001	      0.00000000	      0.00000000	    -14.41609564	     -8.54188792	    -21.11668954	     15.99194952	     90.00000001	      0.00000000	      0.00000000
      2.06000000	     -5.84421397	      1.74989752	    -10.31843277	      0.58062264	      0.89961934	     -0.08971216	    -10.92023239	     -3.88586326	      9.68394555	     20.17140909	      7.20050359	      0.35205750	     -1.95154013	    -13.89856052	     -7.50703836	     28.36902597	     -4.86459678	     -2.94402739	     16.32226243	      7.19604553	      0.28487722	    -12.17760982	    -19.39441641	     -7.50703836	     -2.13840700	     -4.44243547	      8.42577652	      0.58216627	    -17.00579223	      0.31320531	     40.90106965	     90.00000001	      0.00000000	      0.00000000	    -13.54293374	     -8.81077522	    -20.71019791	     16.03291397	     90.00000001	      0.00000000	      0.00000000
      2.07000000	     -5.76743784	      1.36249039	     -9.66260440	      0.59326204	      0.90230423	     -0.09075742	    -10.43515401	     -3.43342427	     10.66507532	     22.11895035	      7.82872078	      0.38604851	     -5.32610129	    -16.84604407	     -7.50677707	     27.58748919	     -4.81937572	     -2.23080198	     16.50737790	      7.35143332	      0.28810810	    -11.51174980	    -19.38815750	     -7.50677707	     -2.26530289	     -4.12667814	      7.84540089	      0.02608701	    -16.50832928	     -0.13217323	     39.64330708	     90.00000001	      0.00000000	      0.00000000	    -12.74421616	     -8.94858971	    -20.04679472	     16.36823652	     90.00000001	      0.00000000	      0.00000000
      2.08000000	     -5.54271330	      1.08837483	     -9.08095495	      0.60578604	      0.90518330	     -0.09186624	     -9.63896955	     -3.06343133	     10.52942763	     24.87060849	      8.02526059	      0.43407401	     -7.56070125	    -17.67435455	     -7.50667373	     26.46454341	     -4.64802333	     -1.90736042	     16.36545104	      7.40674497	      0.28563100	    -10.66245259	    -19.35696070	     -7.50667373	     -2.54327354	     -3.93620128	      7.31688505	     -0.48274120	    -16.10605356	     -0.19682489	     38.35338694	     90.00000001	      0.00000000	      0.00000000	    -11.80068338	     -9.04519759	    -19.63917226	     16.66166485	     90.00000001	      0.00000000	      0.00000000
      2.09000000	     -5.32269957	      0.74405768	     -8.46957933	      0.61806002	      0.90818248	     -0.09295088	     -8.66439897	     -2.59964408	     10.28743294	     27.78011455	      8.20748276	      0.48485447	     -9.29540020	    -18.22741416	     -7.50660620	     25.28321595	     -4.56394361	     -1.53611721	     16.12220621	      7.46155893	      0.28138558	     -9.91112218	    -19.33061463	     -7.50660620	     -2.84219098	     -3.64761881	      6.77428496	     -0.92290225	    -15.69701686	     -0.25764313	     36.96274428	     90.00000001	      0.00000000	      0.00000000	    -10.82241614	     -9.13450058	    -19.24020337	     17.00976816	     90.00000001	      0.00000000	      0.00000000
